HIERARCHY
ROOT Hips
{
  OFFSET 263.056 91.6644 -274.608
  CHANNELS 6 Xposition Yposition Zposition Zrotation Xrotation Yrotation
  JOINT LeftUpLeg
  {
    OFFSET 8.64259 1.95398 -2.38835
    CHANNELS 3 Zrotation Xrotation Yrotation
    JOINT LeftLeg
    {
      OFFSET 43.7702 0 0
      CHANNELS 3 Zrotation Xrotation Yrotation
      JOINT LeftFoot
      {
        OFFSET 40.6238 0 0
        CHANNELS 3 Zrotation Xrotation Yrotation
        JOINT LeftToeBase
        {
          OFFSET 12.7242 0 0
          CHANNELS 3 Zrotation Xrotation Yrotation
          End Site
          {
            OFFSET 0 0 0
          }
        }
      }
    }
  }
  JOINT RightUpLeg
  {
    OFFSET -8.2249 1.95398 -2.59336
    CHANNELS 3 Zrotation Xrotation Yrotation
    JOINT RightLeg
    {
      OFFSET 43.5653 0 0
      CHANNELS 3 Zrotation Xrotation Yrotation
      JOINT RightFoot
      {
        OFFSET 40.6238 0 0
        CHANNELS 3 Zrotation Xrotation Yrotation
        JOINT RightToeBase
        {
          OFFSET 12.7242 0 0
          CHANNELS 3 Zrotation Xrotation Yrotation
          End Site
          {
            OFFSET 0 0 0
          }
        }
      }
    }
  }
  JOINT Spine
  {
    OFFSET 0.165834 0.87714 6.61349
    CHANNELS 3 Zrotation Xrotation Yrotation
    JOINT Spine1
    {
      OFFSET 7.38963 1.71661e-005 0
      CHANNELS 3 Zrotation Xrotation Yrotation
      JOINT Spine2
      {
        OFFSET 11.9445 1.14441e-005 0
        CHANNELS 3 Zrotation Xrotation Yrotation
        JOINT Spine3
        {
          OFFSET 14.7254 4.19617e-005 0
          CHANNELS 3 Zrotation Xrotation Yrotation
          JOINT Spine4
          {
            OFFSET 10.9679 0 0
            CHANNELS 3 Zrotation Xrotation Yrotation
            JOINT RightShoulder
            {
              OFFSET 2.46616 -1.6653 3.69651
              CHANNELS 3 Zrotation Xrotation Yrotation
              JOINT RightArm
              {
                OFFSET 13.0012 0 0
                CHANNELS 3 Zrotation Xrotation Yrotation
                JOINT RightForeArm
                {
                  OFFSET 28.7848 1.52588e-005 0
                  CHANNELS 3 Zrotation Xrotation Yrotation
                  JOINT RightHand
                  {
                    OFFSET 26.5688 1.52588e-005 0
                    CHANNELS 3 Zrotation Xrotation Yrotation
                    End Site
                    {
                      OFFSET 0 0 0
                    }
                  }
                }
              }
            }
            JOINT LeftShoulder
            {
              OFFSET 2.38034 -1.29275 -3.7523
              CHANNELS 3 Zrotation Xrotation Yrotation
              JOINT LeftArm
              {
                OFFSET 16.3182 6.10352e-005 0
                CHANNELS 3 Zrotation Xrotation Yrotation
                JOINT LeftForeArm
                {
                  OFFSET 27.0901 0 0
                  CHANNELS 3 Zrotation Xrotation Yrotation
                  JOINT LeftHand
                  {
                    OFFSET 24.5451 1.52588e-005 0
                    CHANNELS 3 Zrotation Xrotation Yrotation
                    End Site
                    {
                      OFFSET 0 0 0
                    }
                  }
                }
              }
            }
            JOINT Neck
            {
              OFFSET 5.0226 -0.0266342 0
              CHANNELS 3 Zrotation Xrotation Yrotation
              JOINT Head
              {
                OFFSET 6.69364 2.86102e-005 0
                CHANNELS 3 Zrotation Xrotation Yrotation
                End Site
                {
                  OFFSET 0 0 0
                }
              }
            }
          }
        }
      }
    }
  }
}
MOTION
Frames:	13
Frame Time:	0.0416667
-276.662 94.7618 -280.873 91.1219 -45.7991 90.3283 -174.295 8.03898 88.7769 -23.8638 22.3002 -0.175993 55.8754 -0.770346 18.3765 51.3066 23.3909 -4.44227 178.553 13.7413 90.9133 -35.642 -2.04463 -1.78392 60.288 -1.5662 -0.914082 58.1399 -0.80437 -13.344 -0.131057 7.57385 -89.9026 11.7264 -0.214907 0.216729 0.0554202 -0.205179 0.225976 -22.4798 -0.270109 0.142118 -2.46715 -0.270132 0.142108 82.2446 -52.4106 -111.701 27.5947 -7.1358 14.0108 -8.47786 -25.0288 -60.6345 -13.5467 -4.01705 32.1069 -101.016 -41.2741 58.9073 -26.4296 6.58834 4.02539 4.30423 4.86956 -36.0265 11.3707 0.505027 0.569081 6.78303 -12.1035 3.83673 0.809683 -12.7638 -4.55584 
-276.446 95.4191 -281.815 92.1011 -42.6251 91.3215 -174.345 6.49089 88.8686 -21.2347 23.8607 -0.0971271 55.4466 -0.610978 16.7983 49.7868 21.8524 -4.54235 178.439 10.8588 90.9876 -31.1567 0.920718 -1.78456 58.9969 -0.878332 -0.356078 53.7395 1.06265 -1.85 -0.504462 7.52856 -89.9677 11.8178 -0.987947 0.169323 0.147191 -0.979539 0.212647 -22.3911 -0.993166 -0.135459 -2.37839 -0.993153 -0.135454 82.4064 -53.0975 -111.23 25.6485 -5.19614 12.1789 -22.1884 -31.0903 -65.9722 2.77889 0.649007 16.4481 -101.922 -42.2712 57.9527 -26.0235 6.60344 4.44356 2.94443 3.02161 -34.338 8.92899 0.334631 -0.086009 6.03231 -11.2194 4.64522 0.719104 -12.0464 -4.83001 
-276.392 95.2909 -282.155 91.1586 -41.7809 89.9113 -174.142 7.01301 88.141 -20.5736 23.7463 -0.807507 56.2187 0.34451 16.5286 47.8166 19.6007 -5.78492 178.321 4.6491 90.652 -19.6457 4.15135 -1.79465 69.9207 -4.6341 -2.48596 35.5869 0.50144 7.2206 -0.508903 7.30633 -89.8657 12.2634 -0.947894 0.373786 0.592691 -0.930521 0.415145 -21.9452 -1.01641 0.0716011 -1.93256 -1.01641 0.0715927 82.2299 -53.0322 -111.508 26.7868 -4.95943 11.1284 -14.4931 -22.3527 -60.9088 -4.65794 -0.947762 18.5885 -102.503 -42.8833 57.3409 -26.0409 7.30472 3.73812 2.20808 4.00917 -29.9579 8.00795 0.220566 -0.936498 5.46675 -10.8846 4.76601 0.0751768 -11.6921 -4.55775 
-276.189 95.5337 -282.825 91.2811 -44.4801 90.8876 -173.208 5.9283 88.8818 -18.4807 20.3535 -1.36417 57.5861 1.51839 14.8246 48.1849 18.9629 -10.313 178.165 2.12945 90.7512 -14.3793 1.98897 -1.60905 68.6805 -3.16587 -1.67295 31.8158 -0.121842 8.64293 -0.105528 7.24244 -89.9599 12.3892 -0.190579 0.10185 0.718209 -0.185902 0.110132 -21.817 -0.212373 0.0398707 -1.80432 -0.212389 0.0398591 82.8361 -51.5201 -111.144 28.0187 -6.51286 8.82914 -6.47042 -16.0372 -54.8065 -7.76146 -1.41454 17.2677 -102.542 -44.0199 57.8005 -27.2379 6.93048 3.55565 2.8007 6.09368 -27.8111 7.30569 0.378181 1.16167 6.02443 -10.0661 5.50845 -0.539153 -11.0318 -4.82221 
-275.91 95.4815 -283.504 90.5198 -46.8915 90.8459 -172.526 5.78636 88.884 -17.2966 17.781 -2.02191 59.2441 3.52091 15.5544 44.5202 15.5882 -10.5204 177.964 2.28296 90.3476 -12.7686 -0.747853 -1.44532 67.8965 -2.69932 -1.44394 31.1279 -0.264477 9.65363 0.205098 7.18834 -90.0439 12.4975 0.386606 -0.132344 0.826591 0.380422 -0.149238 -21.709 0.408502 -0.0100272 -1.69639 0.408523 -0.0100323 83.5472 -50.3612 -110.487 28.0011 -7.51265 6.6713 -7.49611 -16.4103 -51.6172 -6.04088 -0.945326 13.6412 -102.528 -44.4769 58.0255 -29.9299 7.04066 4.86444 2.48163 5.29877 -27.981 9.18518 0.38705 0.346507 8.02235 -8.21234 5.47603 -1.30468 -9.21755 -2.63544 
-275.613 95.3785 -284.186 90.6522 -47.1291 90.4338 -172.544 4.9963 87.9513 -16.0875 16.0213 -2.3429 60.9162 5.88323 15.6846 41.4789 12.8297 -10.4015 178.095 3.51371 89.9 -14.8451 -1.68727 -2.07438 69.4064 -3.32898 -1.75254 30.0499 -0.310681 7.61135 0.170515 7.24365 -90.0091 12.3867 0.334563 -0.0563813 0.715759 0.331733 -0.0710531 -21.8197 0.336023 0.0467735 -1.80709 0.336037 0.0467777 82.9904 -51.0128 -111.091 26.4869 -7.88254 6.39275 -8.91985 -14.4957 -52.4377 -3.88117 -0.571844 11.6891 -102.598 -44.6413 57.9948 -32.0377 8.99507 6.03152 3.18124 9.01465 -28.9314 10.3939 0.832943 3.82325 9.79901 -4.85222 6.25911 -3.0106 -6.14889 -3.12384 
-274.834 95.0523 -284.594 89.1704 -45.6312 88.7436 -173.217 4.56343 86.5518 -13.6634 17.5145 -2.58219 60.3897 8.23717 19.3909 41.8813 13.267 -9.80909 177.714 5.84772 88.8307 -18.2902 -1.16884 -2.09937 71.5659 -3.98002 -2.02309 29.4064 -0.285103 5.70839 0.0590445 7.2328 -89.9953 12.4082 0.119653 -0.00434447 0.737291 0.119327 -0.00960558 -21.7979 0.115414 0.0318235 -1.78524 0.115401 0.0318079 83.5158 -50.5949 -110.454 27.0057 -5.93275 6.76476 -11.9113 -12.1009 -53.0732 -1.49761 -0.266366 12.4358 -103.539 -44.6455 56.5845 -32.7801 10.983 5.73453 1.52327 8.46399 -27.3876 8.84014 0.510883 1.81363 10.7818 -2.75034 6.19645 -2.93008 -4.1282 -2.7579 
-274.36 94.5341 -284.89 90.8534 -44.9408 90.6843 -172.613 4.12191 87.1226 -15.6476 18.3056 -2.89806 62.2455 11.9847 22.6072 41.6543 12.8882 -11.2886 179.272 7.75078 90.3535 -24.3012 2.7554 -3.56422 70.987 -4.08769 -2.10265 35.0488 0.347116 4.90373 0.057029 7.42604 -90.0329 12.0218 0.0978641 -0.0766075 0.350864 0.0944066 -0.0808425 -22.1843 0.116358 -0.043654 -2.17165 0.116371 -0.043655 83.0438 -51.2309 -110.937 26.3373 -6.71349 7.70667 -11.0077 -11.2813 -49.7926 -2.13848 -0.321607 9.22841 -102.863 -44.5185 57.5408 -32.6938 10.6832 5.51441 2.52196 9.63659 -28.9563 11.599 1.06475 4.95889 10.1813 -1.95747 3.88219 -1.54138 -2.8114 -1.24232 
-273.552 93.954 -284.789 91.6385 -44.7381 91.2212 -172.385 3.50426 86.8734 -16.9128 17.8 -3.05226 64.6436 15.5801 23.3856 41.3231 12.9758 -7.79611 -179.834 12.7562 90.9555 -34.3199 5.28966 -3.99545 69.7162 -4.51616 -2.38524 40.9836 0.833893 1.90738 0.0515806 7.55065 -89.9626 11.7725 0.120192 0.0617794 0.1016 0.122802 0.0564288 -22.4336 0.0960837 0.0950571 -2.42092 0.0960633 0.0950398 82.3653 -52.1893 -111.603 26.1042 -7.29636 9.2144 -11.7014 -13.1638 -45.519 -3.95572 -0.430114 4.20506 -103.005 -44.3041 57.2302 -31.3826 10.4673 5.70409 3.01172 8.25631 -31.9309 12.5254 1.21502 5.59065 8.8337 -1.66694 1.9733 0.00796046 -2.06557 -0.409118 
-272.104 93.7453 -284.476 92.761 -42.481 92.6833 -172.752 1.59803 87.1016 -16.7092 19.0451 -2.33541 65.0438 17.4297 24.2034 43.1899 15.0479 -5.84138 178.961 17.2992 91.5269 -41.4289 7.14759 -2.43109 69.2866 -3.96019 -2.10021 42.9418 1.04208 2.91621 -0.250168 7.70246 -90.0184 11.4698 -0.506308 0.0147089 -0.201022 -0.505178 0.0369766 -22.7369 -0.487335 -0.138145 -2.72422 -0.487343 -0.138147 82.1207 -52.6389 -111.802 26.5436 -6.85184 10.6306 -9.73832 -14.9022 -40.5084 -6.66779 -0.571292 3.28453 -103.137 -43.9445 56.8676 -29.8778 10.2097 5.82012 3.15897 6.18104 -35.3131 12.4548 1.08996 4.65323 7.0477 -0.197298 1.86242 0.27144 -0.615453 -1.56712 
-270.226 93.7373 -283.693 91.6293 -40.8726 91.9828 -173.246 -0.0238007 86.7805 -13.9286 20.0253 -1.96769 65.9037 18.5313 22.4606 38.7099 10.8838 -2.19018 178.695 21.5894 91.5573 -39.6215 7.32192 -1.27803 68.898 -3.65602 -1.95249 44.4978 1.06562 1.29734 -0.467751 7.66036 -90.0966 11.5532 -0.975741 -0.0931911 -0.117355 -0.978904 -0.0501593 -22.6552 -0.902625 -0.382157 -2.64254 -0.902631 -0.382168 82.3118 -53.4882 -111.234 25.9902 -6.49209 12.6737 -10.1433 -14.457 -39.8558 -7.11793 -0.590191 2.73633 -103.999 -43.9485 55.5717 -28.377 9.22031 5.14471 3.7908 4.85183 -38.541 11.7371 0.859485 3.31546 5.1832 0.1366 1.51093 0.701846 -0.154926 -0.36195 
-268.242 93.6145 -282.466 90.4104 -41.288 90.4916 -173.527 -1.95765 85.875 -11.671 19.7624 -2.12526 65.4187 18.4607 22.4609 36.6282 8.70705 -1.22728 179.046 26.1565 90.9078 -35.3425 5.07477 -0.706539 68.5041 -3.06445 -1.63528 44.1726 0.967792 0.282747 -0.597723 7.57629 -89.9545 11.7228 -1.16739 0.213823 0.0523399 -1.15685 0.26499 -22.487 -1.1777 -0.146962 -2.47429 -1.17769 -0.146974 80.3638 -55.433 -113.321 24.6617 -4.96426 14.7547 -11.2947 -10.4177 -41.8842 -1.12374 -0.193715 6.91476 -102.549 -42.7615 57.2121 -27.9299 8.79623 3.48092 4.73391 5.20659 -40.1039 11.5974 0.785872 2.80711 3.67009 0.495711 -0.207547 1.24207 0.560666 1.0004 
-266.184 93.2753 -280.401 90.0135 -41.9749 90.2577 -172.849 -3.05724 86.3673 -12.5064 20.2274 -2.48304 65.2809 18.5065 23.6498 39.8027 12.0059 -2.52408 179.637 28.316 91.8122 -28.1508 7.63224 0.243763 68.6014 -3.16847 -1.68656 42.9947 1.11779 3.93941 -0.619242 7.72852 -90.0601 11.4175 -1.26011 0.00774452 -0.252873 -1.25854 0.0632008 -22.7926 -1.20417 -0.371387 -2.77997 -1.20416 -0.371391 80.6418 -55.444 -112.929 23.0739 -0.940007 14.856 3.12155 0.71824 -39.0108 2.61149 0.451487 10.3135 -105.46 -42.9116 52.8727 -22.9996 13.5806 6.55851 2.62008 1.70745 -49.0415 12.6659 1.60247 8.40402 4.31347 0.728899 0.329244 2.00165 0.719974 1.34285 
